# 3ds Max Wavefront OBJ Exporter v0.97b - (c)2007 guruware
# File Created: 27.03.2018 10:43:26

mtllib ruby do trong suot.mtl

#
# object pCylinder1
#

v  0.5725 2.8170 0.4306
v  -8.4088 17.2939 -14.9774
v  9.4457 17.2939 -14.9774
v  -17.3360 17.2939 0.4850
v  -8.4088 17.2939 15.9475
v  9.4457 17.2939 15.9475
v  18.3730 17.2939 0.4850
v  7.4343 21.1994 -11.4936
v  -6.3974 21.1994 -11.4936
v  0.5725 21.1994 0.4306
v  -13.3132 21.1994 0.4850
v  -6.3974 21.1994 12.4637
v  7.4343 21.1994 12.4637
v  14.3502 21.1994 0.4850
# 14 vertices

vn 0.0000 -0.7288 -0.6847
vn -0.5915 -0.7304 -0.3415
vn -0.5904 -0.7316 0.3409
vn 0.0000 -0.7312 0.6822
vn 0.5923 -0.7296 0.3420
vn 0.5934 -0.7284 -0.3426
vn 0.0000 1.0000 -0.0000
vn 0.0000 0.6657 0.7462
vn -0.6463 0.6657 0.3731
vn -0.6463 0.6657 -0.3731
vn 0.0000 0.6657 -0.7462
vn 0.6463 0.6657 -0.3731
vn 0.6463 0.6657 0.3731
# 13 vertex normals

vt 0.4525 0.3125 0.0000
vt 0.4167 0.6354 0.0000
vt 0.3750 0.6354 0.0000
vt 0.4583 0.6354 0.0000
vt 0.5000 0.6354 0.0000
vt 0.5417 0.6354 0.0000
vt 0.5833 0.6354 0.0000
vt 0.6250 0.6354 0.0000
vt 0.5781 0.9791 0.0000
vt 0.4219 0.9791 0.0000
vt 0.5000 0.8375 0.0000
vt 0.3438 0.8438 0.0000
vt 0.4219 0.7084 0.0000
vt 0.5781 0.7084 0.0000
vt 0.6563 0.8438 0.0000
vt 0.5417 0.6884 0.0000
vt 0.5000 0.6884 0.0000
vt 0.4583 0.6884 0.0000
vt 0.4167 0.6884 0.0000
vt 0.3750 0.6884 0.0000
vt 0.6250 0.6884 0.0000
vt 0.5833 0.6884 0.0000
# 22 texture coords

g pCylinder1
usemtl 03___Default
s off
f 1/1/1 2/2/1 3/3/1 
f 1/1/2 4/4/2 2/2/2 
f 1/1/3 5/5/3 4/4/3 
f 1/1/4 6/6/4 5/5/4 
f 1/1/5 7/7/5 6/6/5 
f 1/1/6 3/8/6 7/7/6 
f 8/9/7 9/10/7 10/11/7 
f 9/10/7 11/12/7 10/11/7 
f 11/12/7 12/13/7 10/11/7 
f 12/13/7 13/14/7 10/11/7 
f 13/14/7 14/15/7 10/11/7 
f 14/15/7 8/9/7 10/11/7 
f 6/6/8 13/16/8 12/17/8 5/5/8 
f 5/5/9 12/17/9 11/18/9 4/4/9 
f 4/4/10 11/18/10 9/19/10 2/2/10 
f 2/2/11 9/19/11 8/20/11 3/3/11 
f 3/8/12 8/21/12 14/22/12 7/7/12 
f 7/7/13 14/22/13 13/16/13 6/6/13 
# 6 polygons - 12 triangles

